<?xml version="1.0" standalone="no"?>
<!DOCTYPE svg PUBLIC "-//W3C//DTD SVG 20010904//EN"
 "http://www.w3.org/TR/2001/REC-SVG-20010904/DTD/svg10.dtd">
<svg version="1.0" xmlns="http://www.w3.org/2000/svg"
 width="500.000000pt" height="500.000000pt" viewBox="0 0 500.000000 500.000000"
 preserveAspectRatio="xMidYMid meet">

<g transform="translate(0.000000,500.000000) scale(0.100000,-0.100000)"
fill="#000000" stroke="none">
<path d="M2085 4440 c-305 -19 -648 -62 -967 -120 -245 -45 -418 -87 -439
-106 -24 -22 -24 -47 1 -164 170 -786 474 -1553 888 -2240 234 -388 537 -799
808 -1098 65 -70 80 -82 107 -82 41 0 40 0 133 105 686 782 1188 1662 1502
2635 84 261 201 723 202 796 0 18 -8 38 -19 48 -54 49 -739 168 -1211 212
-196 18 -804 26 -1005 14z m498 -587 c-7 -2 -19 -2 -25 0 -7 3 -2 5 12 5 14 0
19 -2 13 -5z m-180 -25 c68 -1 101 -70 80 -169 l-7 -34 -7 35 -6 35 -2 -37
c-1 -44 -16 -56 -33 -28 -19 30 -38 25 -38 -11 0 -17 -4 -28 -10 -24 -6 3 -10
-4 -10 -16 0 -22 0 -22 -15 -3 -15 18 -16 16 -13 -28 3 -39 1 -44 -11 -35 -12
10 -12 9 -2 -10 15 -28 0 -30 -24 -3 -21 24 -40 26 -31 5 21 -51 21 -51 -2
-31 -12 11 -22 16 -22 12 0 -4 -17 2 -37 14 -35 20 -36 20 -15 2 12 -11 28
-22 34 -24 6 -2 8 -9 4 -16 -4 -8 -25 3 -64 33 -35 27 -75 48 -104 54 -41 10
-51 8 -83 -10 -20 -12 -39 -19 -42 -15 -3 3 -12 1 -20 -5 -22 -19 -15 -1 22
57 37 57 94 100 172 130 23 9 43 22 43 29 0 12 62 35 95 35 14 0 15 3 5 15
-10 13 -9 15 11 15 20 0 21 2 9 11 -11 8 -6 9 23 5 35 -4 37 -3 25 11 -12 15
-10 16 12 9 14 -4 42 -8 63 -8z m267 -3 c-10 -12 -6 -13 27 -9 29 4 34 3 23
-5 -12 -9 -11 -11 9 -11 20 0 21 -2 11 -15 -10 -13 -9 -15 11 -15 28 -1 91
-28 69 -29 -8 -1 14 -14 50 -29 105 -45 148 -78 191 -144 21 -34 39 -66 39
-72 0 -6 -5 -4 -10 4 -5 8 -10 12 -10 8 0 -4 -22 6 -49 22 -39 24 -55 29 -82
24 -40 -8 -82 -28 -124 -58 -50 -37 -75 -40 -35 -5 36 32 27 31 -22 -3 -16
-11 -28 -16 -28 -12 0 3 -8 0 -17 -7 -18 -15 -17 -14 4 39 8 19 -12 14 -32 -8
-23 -26 -39 -26 -25 -1 14 27 13 38 -3 18 -10 -15 -12 -10 -9 30 3 45 2 47
-13 29 -15 -19 -15 -19 -15 3 0 12 -4 19 -10 16 -6 -4 -10 7 -10 24 0 36 -23
42 -40 11 -15 -29 -30 -16 -31 28 l-2 37 -6 -40 -6 -40 -11 62 c-15 88 15 148
74 151 20 1 22 -1 11 -15 -9 -10 -2 -8 21 6 42 25 69 29 50 6z m-605 -370
c-44 -27 -43 -33 1 -10 45 23 65 18 132 -30 52 -38 62 -50 62 -75 0 -17 -4
-38 -9 -48 -5 -9 -14 -30 -20 -45 -15 -38 -37 -43 -79 -18 -21 12 -72 40 -114
61 l-78 40 5 -80 c5 -87 27 -152 65 -185 28 -25 115 -28 130 -5 9 14 15 7 11
-14 -3 -12 28 11 51 39 15 17 19 18 28 5 5 -8 10 -31 10 -51 l0 -37 -98 -4
c-72 -2 -106 -8 -125 -21 -36 -23 -59 -60 -51 -81 5 -14 9 -15 15 -4 6 8 9 0
9 -24 0 -20 5 -40 10 -43 6 -4 10 -3 9 2 -5 28 7 22 54 -28 28 -31 45 -47 37
-36 -13 18 -13 19 0 12 44 -25 135 -102 184 -157 98 -107 132 -216 108 -338
-9 -43 -10 -44 -20 -20 -11 28 -10 29 -41 -60 l-18 -55 -8 70 -8 70 -15 -60
c-13 -52 -16 -57 -23 -35 -4 14 -11 79 -14 144 l-7 119 -50 -87 c-28 -48 -52
-85 -55 -83 -2 3 7 48 20 101 14 53 24 96 22 96 -2 0 -38 -61 -82 -136 l-78
-135 -4 48 -3 48 -18 -80 c-10 -44 -24 -93 -30 -110 l-12 -30 -15 33 c-23 56
-45 230 -40 327 2 50 2 77 0 60 -4 -27 -113 -218 -121 -211 -1 2 2 16 8 31 6
15 9 29 7 31 -1 2 -22 -41 -45 -95 -23 -54 -49 -106 -58 -117 -14 -17 -15 -12
-9 66 8 99 22 135 99 250 32 47 43 69 26 50 -17 -19 -46 -57 -65 -85 -19 -27
-35 -46 -35 -42 0 16 34 73 80 137 51 71 100 151 100 166 0 5 -14 -16 -32 -46
-27 -47 -102 -153 -130 -185 -6 -6 -7 0 -4 15 17 78 100 410 125 500 38 136
45 170 33 170 -5 0 -13 -20 -16 -45 -9 -56 -26 -69 -26 -18 1 94 35 261 70
341 24 54 35 52 15 -3 -22 -63 -17 -73 13 -24 27 41 62 79 62 66 0 -3 15 0 33
8 52 23 65 17 22 -10z m927 -17 c22 -24 44 -43 50 -43 5 0 16 -11 23 -25 19
-33 19 -13 0 40 -21 58 -10 64 15 8 35 -80 69 -247 70 -341 0 -49 -18 -39 -26
14 -6 38 -24 65 -24 37 0 -8 21 -88 46 -178 47 -169 125 -492 120 -497 -2 -2
-19 20 -39 49 -94 137 -117 170 -117 163 0 -12 79 -141 94 -154 24 -20 76
-106 76 -126 0 -10 -17 8 -40 41 -43 64 -89 122 -90 113 0 -3 25 -38 55 -79
30 -40 64 -97 74 -126 20 -53 40 -204 27 -204 -4 0 -30 46 -57 103 -27 56 -47
91 -43 77 9 -33 6 -29 -57 70 -29 47 -56 101 -60 120 -5 22 -6 3 -3 -50 7
-131 -32 -380 -55 -354 -13 14 -33 82 -52 174 l-17 85 5 -75 c5 -88 10 -92
-88 78 -39 67 -73 122 -74 122 -1 0 8 -44 21 -97 12 -54 21 -99 19 -101 -1 -2
-25 36 -53 84 l-50 87 -6 -109 c-4 -60 -11 -125 -15 -144 l-8 -35 -14 60 -14
60 -10 -70 -10 -69 -24 74 -23 74 -13 -30 c-12 -28 -12 -27 -20 39 -4 38 -5
85 -2 106 12 95 103 221 228 317 61 47 79 55 59 27 -7 -10 12 8 41 40 53 57
77 72 65 41 -3 -8 -2 -12 4 -9 6 3 10 23 10 43 0 28 3 33 10 22 7 -11 10 -11
10 -2 0 8 5 10 12 6 23 -15 -27 59 -55 80 -22 16 -46 21 -127 24 -109 5 -115
8 -99 66 11 41 19 44 36 16 7 -10 22 -24 34 -31 17 -8 20 -8 14 1 -6 9 -1 10
16 4 13 -5 43 -9 66 -9 78 1 121 70 126 206 3 93 16 95 -189 -26 -17 -10 -38
-16 -47 -12 -23 9 -65 106 -59 135 5 28 114 112 143 112 11 0 39 -9 62 -20 36
-18 39 -18 21 -3 -12 10 -30 23 -40 30 -18 11 -17 12 5 12 16 1 37 -13 63 -41z
m46 -33 c-3 -3 -9 2 -12 12 -6 14 -5 15 5 6 7 -7 10 -15 7 -18z m-855 -228
c44 -16 -11 -60 -69 -55 -47 4 -74 38 -81 103 l-6 46 69 -44 c38 -24 77 -47
87 -50z m783 39 c-10 -64 -38 -96 -85 -96 -35 0 -81 22 -81 40 0 4 26 23 58
40 31 18 68 41 81 52 13 10 26 16 29 14 2 -3 1 -25 -2 -50z m-406 9 c20 -10
35 -31 49 -67 14 -37 20 -46 20 -29 1 47 11 13 26 -89 17 -126 32 -147 92
-134 l38 8 -40 6 c-38 6 -36 7 30 15 118 14 149 13 153 -8 5 -23 -15 -45 -108
-120 -41 -33 -99 -83 -127 -111 -29 -28 -53 -47 -53 -42 0 5 20 39 45 76 43
65 73 96 140 148 l30 23 -31 -15 c-62 -30 -140 -113 -182 -193 -43 -84 -55
-119 -76 -229 -20 -99 -40 -144 -65 -144 -29 0 -45 38 -70 160 -37 181 -135
342 -242 398 -24 13 -33 15 -19 6 52 -37 137 -133 169 -194 l34 -63 -64 65
c-35 35 -89 83 -119 105 -56 41 -130 116 -130 132 0 19 37 21 134 9 85 -11 95
-14 61 -19 l-40 -5 38 -8 c61 -13 76 9 92 133 13 100 24 139 26 90 0 -14 3
-18 5 -9 18 55 41 93 63 105 34 19 85 19 121 0z"/>
<path d="M1968 3558 c-13 -13 -17 -18 -8 -12 8 6 24 16 35 22 11 6 15 12 8 12
-7 0 -22 -10 -35 -22z"/>
<path d="M2050 3570 c-10 -7 5 -10 50 -9 45 0 59 3 45 9 -27 12 -77 12 -95 0z"/>
<path d="M3000 3564 c25 -14 54 -33 65 -41 11 -9 1 3 -22 25 -25 25 -52 42
-65 42 -18 0 -14 -6 22 -26z"/>
<path d="M2938 3563 c7 -3 16 -2 19 1 4 3 -2 6 -13 5 -11 0 -14 -3 -6 -6z"/>
<path d="M1989 3433 c-13 -16 -12 -17 4 -4 9 7 17 15 17 17 0 8 -8 3 -21 -13z"/>
<path d="M2171 3364 c0 -11 3 -14 6 -6 3 7 2 16 -1 19 -3 4 -6 -2 -5 -13z"/>
<path d="M2212 3320 c0 -19 2 -27 5 -17 2 9 2 25 0 35 -3 9 -5 1 -5 -18z"/>
<path d="M1943 3215 c0 -22 2 -30 4 -17 2 12 2 30 0 40 -3 9 -5 -1 -4 -23z"/>
<path d="M1951 3142 c-1 -31 22 -84 45 -102 19 -14 19 -14 0 8 -11 12 -25 43
-32 69 -7 27 -13 38 -13 25z"/>
<path d="M1861 2834 c0 -11 3 -14 6 -6 3 7 2 16 -1 19 -3 4 -6 -2 -5 -13z"/>
<path d="M1832 2745 c-13 -39 -26 -76 -29 -84 -3 -8 -1 -11 5 -7 16 9 53 116
50 140 -2 12 -12 -8 -26 -49z"/>
<path d="M1881 2769 c-7 -24 -33 -83 -57 -131 -24 -49 -42 -88 -39 -88 20 0
121 227 112 253 -1 5 -9 -10 -16 -34z"/>
<path d="M2012 2670 c0 -14 2 -19 5 -12 2 6 2 18 0 25 -3 6 -5 1 -5 -13z"/>
<path d="M1961 2624 c0 -11 3 -14 6 -6 3 7 2 16 -1 19 -3 4 -6 -2 -5 -13z"/>
<path d="M2001 2624 c0 -11 3 -14 6 -6 3 7 2 16 -1 19 -3 4 -6 -2 -5 -13z"/>
<path d="M1953 2560 c0 -25 2 -35 4 -22 2 12 2 32 0 45 -2 12 -4 2 -4 -23z"/>
<path d="M2122 2560 c0 -19 2 -27 5 -17 2 9 2 25 0 35 -3 9 -5 1 -5 -18z"/>
<path d="M2092 2530 c0 -14 2 -19 5 -12 2 6 2 18 0 25 -3 6 -5 1 -5 -13z"/>
<path d="M2083 2465 c0 -22 2 -30 4 -17 2 12 2 30 0 40 -3 9 -5 -1 -4 -23z"/>
<path d="M2041 2384 c0 -11 3 -14 6 -6 3 7 2 16 -1 19 -3 4 -6 -2 -5 -13z"/>
<path d="M2032 2330 c0 -14 2 -19 5 -12 2 6 2 18 0 25 -3 6 -5 1 -5 -13z"/>
<path d="M2822 3370 c0 -14 2 -19 5 -12 2 6 2 18 0 25 -3 6 -5 1 -5 -13z"/>
<path d="M2782 3320 c0 -19 2 -27 5 -17 2 9 2 25 0 35 -3 9 -5 1 -5 -18z"/>
<path d="M3042 3140 c0 -14 2 -19 5 -12 2 6 2 18 0 25 -3 6 -5 1 -5 -13z"/>
<path d="M3030 3094 c0 -8 -13 -29 -29 -45 -16 -16 -26 -29 -21 -29 13 0 60
60 60 76 0 8 -2 14 -5 14 -3 0 -5 -7 -5 -16z"/>
<path d="M3136 2810 c7 -51 41 -147 54 -155 5 -3 2 13 -7 37 -8 24 -24 70 -34
103 -18 57 -19 57 -13 15z"/>
<path d="M3105 2789 c10 -53 66 -185 90 -214 21 -24 18 -13 -16 55 -23 47 -50
108 -61 135 -10 28 -16 38 -13 24z"/>
<path d="M2982 2670 c0 -14 2 -19 5 -12 2 6 2 18 0 25 -3 6 -5 1 -5 -13z"/>
<path d="M2991 2624 c0 -11 3 -14 6 -6 3 7 2 16 -1 19 -3 4 -6 -2 -5 -13z"/>
<path d="M3032 2620 c0 -14 2 -19 5 -12 2 6 2 18 0 25 -3 6 -5 1 -5 -13z"/>
<path d="M2872 2560 c0 -19 2 -27 5 -17 2 9 2 25 0 35 -3 9 -5 1 -5 -18z"/>
<path d="M3043 2555 c0 -22 2 -30 4 -17 2 12 2 30 0 40 -3 9 -5 -1 -4 -23z"/>
<path d="M2902 2525 c0 -16 2 -22 5 -12 2 9 2 23 0 30 -3 6 -5 -1 -5 -18z"/>
<path d="M2912 2460 c0 -19 2 -27 5 -17 2 9 2 25 0 35 -3 9 -5 1 -5 -18z"/>
<path d="M2952 2380 c0 -14 2 -19 5 -12 2 6 2 18 0 25 -3 6 -5 1 -5 -13z"/>
<path d="M2390 2995 c-7 -14 -11 -27 -8 -30 10 -10 51 31 44 43 -11 18 -21 14
-36 -13z"/>
<path d="M2576 3012 c-9 -15 -1 -29 25 -42 24 -13 25 1 1 31 -13 15 -21 19
-26 11z"/>
</g>
</svg>
